<svg width="16" height="16" xmlns="http://www.w3.org/2000/svg" viewBox="0 0 30 30"><path class="st0" d="M18.1 25.7c-.8 0-1.6-.2-2.3-.6-1-.6-1.9-1.3-2.6-2.1-3-3.4-5.2-7.4-6.5-11.9-.2-.7-.3-1.5-.4-2.3-.1-1.5.3-2.9 1.1-4 .7-1 1.6-1.6 2.9-2 .7-.2 1.2-.2 1.8.1.5.3.9.8 1.1 1.5l.3 1.2c.3 1 .5 2 .7 3 .1 1-.5 2.2-1.1 2.8-.6.5-.7.7.1 2.3l.1.2c.3.5.6 1.3 1.3 2.3.3.4.7 1 .8 1.1 0 0 .1 0 .2-.1 2.2-1.1 3.6.4 4.1 1 .3.4.6.7.9 1l1 1c1.2 1.4 1.2 2.7.1 3.8a4.6 4.6 0 01-3.6 1.7zm-7-21.1h-.2c-.8.2-1.4.6-1.8 1.2-.7.9-.8 2-.7 2.7.1.7.2 1.4.3 1.9 1.2 4.2 3.3 7.9 6.1 11.1.5.6 1.3 1.2 2.1 1.7 1.1.6 2.6.3 3.5-.7.3-.3.4-.4-.2-1.1l-.9-.9-1-1c-.7-.8-1.1-.8-1.7-.5-1.8.9-2.8-.4-3.6-1.6-.8-1.1-1.2-2-1.4-2.6l-.1-.2c-.8-1.7-1.4-3.1.2-4.6.3-.3.5-.9.5-1.2-.1-.9-.4-1.7-.6-2.7-.1-.4-.2-.8-.3-1.3l-.2-.2z"/></svg>