<svg width="16" height="16" xmlns="http://www.w3.org/2000/svg" viewBox="0 0 30 30">
<g>
<path class="st0" d="M18.1,25.7c-0.8,0-1.6-0.2-2.3-0.6c-1-0.6-1.9-1.3-2.6-2.1c-3-3.4-5.2-7.4-6.5-11.9c-0.2-0.7-0.3-1.5-0.4-2.3c-0.1-1.5,0.3-2.9,1.1-4c0.7-1,1.6-1.6,2.9-2c0.7-0.2,1.2-0.2,1.8,0.1c0.5,0.3,0.9,0.8,1.1,1.5c0.1,0.4,0.2,0.8,0.3,1.2c0.3,1,0.5,2,0.7,3c0.1,1-0.5,2.2-1.1,2.8c-0.6,0.5-0.7,0.7,0.1,2.3l0.1,0.2c0.3,0.5,0.6,1.3,1.3,2.3c0.3,0.4,0.7,1,0.8,1.1c0,0,0.1,0,0.2-0.1c2.2-1.1,3.6,0.4,4.1,1c0.3,0.4,0.6,0.7,0.9,1c0.3,0.3,0.7,0.7,1,1c1.2,1.4,1.2,2.7,0.1,3.8C20.8,25.1,19.5,25.7,18.1,25.7z M11.1,4.6c0,0-0.1,0-0.2,0c-0.8,0.2-1.4,0.6-1.8,1.2c-0.7,0.9-0.8,2-0.7,2.7v0c0.1,0.7,0.2,1.4,0.3,1.9c1.2,4.2,3.3,7.9,6.1,11.1c0.5,0.6,1.3,1.2,2.1,1.7c1.1,0.6,2.6,0.3,3.5-0.7c0.3-0.3,0.4-0.4-0.2-1.1c-0.3-0.3-0.6-0.6-0.9-0.9c-0.3-0.3-0.7-0.7-1-1c-0.7-0.8-1.1-0.8-1.7-0.5c-1.8,0.9-2.8-0.4-3.6-1.6c-0.8-1.1-1.2-2-1.4-2.6l-0.1-0.2c-0.8-1.7-1.4-3.1,0.2-4.6c0.3-0.3,0.5-0.9,0.5-1.2c-0.1-0.9-0.4-1.7-0.6-2.7c-0.1-0.4-0.2-0.8-0.3-1.3C11.2,4.7,11.1,4.6,11.1,4.6z"/>
</g>
</svg>
