<svg xmlns="http://www.w3.org/2000/svg" xmlns:xlink="http://www.w3.org/1999/xlink"><symbol id="icon-arrow-down"><path d="M8 1v14m7-7l-7 7-7-7" stroke="#fff" stroke-width="2" stroke-linecap="round" stroke-linejoin="round"/></symbol><symbol id="icon-check-hvr"><path fill-rule="evenodd" clip-rule="evenodd" d="M17.614 5.21a1 1 0 01.175 1.404l-7.775 10a1 1 0 01-1.476.112l-4.226-4a1 1 0 111.375-1.452l3.425 3.242 7.098-9.13a1 1 0 011.404-.175z" fill="#FE7865"/></symbol><symbol id="icon-check"><path fill-rule="evenodd" clip-rule="evenodd" d="M17.614 5.21a1 1 0 01.175 1.404l-7.775 10a1 1 0 01-1.476.112l-4.226-4a1 1 0 111.375-1.452l3.425 3.242 7.098-9.13a1 1 0 011.404-.175z" fill="#141517"/></symbol><symbol id="icon-close"><path d="M1 23L23 1m0 22L1 1" stroke="#141517" stroke-opacity=".2" stroke-linecap="round" stroke-linejoin="round"/></symbol><symbol id="icon-mail"><path d="M24.227 0H1.773C.768 0 0 .765 0 1.765v16.47C0 19.235.768 20 1.773 20h22.454C25.232 20 26 19.235 26 18.235V1.765C26 .765 25.232 0 24.227 0zm0 17l-4.668-4.647a.86.86 0 00-1.24 0 .85.85 0 000 1.235l4.667 4.647H3.014l4.668-4.647a.85.85 0 000-1.235.86.86 0 00-1.241 0L1.773 17V5.706l10.636 8a.955.955 0 00.532.176.955.955 0 00.532-.176l10.754-8V17zm0-15.235V3.47l-11.286 8.352L1.773 3.471V1.765h22.454z" fill="#D7D9DF"/></symbol><symbol id="icon-phone" viewBox="0 0 30 30"><path class="st0" d="M18.1 25.7c-.8 0-1.6-.2-2.3-.6-1-.6-1.9-1.3-2.6-2.1-3-3.4-5.2-7.4-6.5-11.9-.2-.7-.3-1.5-.4-2.3-.1-1.5.3-2.9 1.1-4 .7-1 1.6-1.6 2.9-2 .7-.2 1.2-.2 1.8.1.5.3.9.8 1.1 1.5l.3 1.2c.3 1 .5 2 .7 3 .1 1-.5 2.2-1.1 2.8-.6.5-.7.7.1 2.3l.1.2c.3.5.6 1.3 1.3 2.3.3.4.7 1 .8 1.1 0 0 .1 0 .2-.1 2.2-1.1 3.6.4 4.1 1 .3.4.6.7.9 1l1 1c1.2 1.4 1.2 2.7.1 3.8a4.6 4.6 0 01-3.6 1.7zm-7-21.1h-.2c-.8.2-1.4.6-1.8 1.2-.7.9-.8 2-.7 2.7.1.7.2 1.4.3 1.9 1.2 4.2 3.3 7.9 6.1 11.1.5.6 1.3 1.2 2.1 1.7 1.1.6 2.6.3 3.5-.7.3-.3.4-.4-.2-1.1l-.9-.9-1-1c-.7-.8-1.1-.8-1.7-.5-1.8.9-2.8-.4-3.6-1.6-.8-1.1-1.2-2-1.4-2.6l-.1-.2c-.8-1.7-1.4-3.1.2-4.6.3-.3.5-.9.5-1.2-.1-.9-.4-1.7-.6-2.7-.1-.4-.2-.8-.3-1.3l-.2-.2z"/></symbol></svg>